# xmcd CD database file
#
# Track frame offsets:
#	150
#	21745
#	43830
#	60277
#	81027
#	99125
#	117491
#	136212
#	157195
#	174406
#
# Disc length: 2567 seconds
#
# Revision: 0
# Processed by: cddbd v1.5.2PL0 Copyright (c) Steve Scherf et al.
# Submitted via: CDex 1.70beta2
#
DISCID=7f0a050a
DTITLE=The Voodoo Trombone Quartet - Again
DYEAR=2009
DGENRE=Jazz
TTITLE0=Vibrations
TTITLE1=South Westerly
TTITLE2=My Name in Food
TTITLE3=(Hey You) The Rocksteady Crew
TTITLE4=Do It Your Own Way
TTITLE5=Edgar
TTITLE6=Chinese Burns For Free
TTITLE7=Honey Bee
TTITLE8=Double Bluff
TTITLE9=So Innocent
EXTD=YEAR: 2009
EXTT0=
EXTT1=
EXTT2=
EXTT3=
EXTT4=
EXTT5=
EXTT6=
EXTT7=
EXTT8=
EXTT9=
PLAYORDER=
